<svg xmlns="http://www.w3.org/2000/svg" width="77" height="77" viewBox="0 0 77 77">
  <g id="Group_25232" data-name="Group 25232" transform="translate(-913 -223.582)">
    <g id="Group_25060" data-name="Group 25060" transform="translate(483 12.332)">
      <rect id="icon_bg" data-name="icon bg" width="77" height="77" rx="16" transform="translate(430 211.25)" fill="#d1f7ea"/>
    </g>
    <g id="Group_25185" data-name="Group 25185" transform="translate(7.2 126.584)">
      <path id="Path_19831" data-name="Path 19831" d="M21.294,13.429l2.324,5.448h5.448L24.4,22.764,26.731,29l-5.448-3.887L15.835,29l2.335-6.231L13.5,18.877h5.448Z" transform="translate(933.536 123.267)" fill="none" stroke="#1ad598" stroke-linejoin="round" stroke-width="2"/>
      <path id="Path_19832" data-name="Path 19832" d="M21.461,20.4c-1.209-.4-2.282-.83-3.839-1.329V15.176s2.335-.964,2.335-4.67c1.557,0,1.557-3.224,0-3.224,0-.364,1.451-2.5.937-4.559-.738-2.965-9.46-2.965-10.2,0C7.011,1.982,9.061,6.9,9.061,7.393c-.778,0-.778,3.113,0,3.113,0,3.706,2.335,4.67,2.335,4.67v3.892C7.5,20.711,2.082,21.8,1.437,23.738A31.087,31.087,0,0,0,.5,30.02H16.844" transform="translate(926.3 116.07)" fill="none" stroke="#1ad598" stroke-linejoin="round" stroke-width="2"/>
    </g>
  </g>
</svg>
