<svg xmlns="http://www.w3.org/2000/svg" width="28" height="28" viewBox="0 0 28 28">
  <g id="Group_25233" data-name="Group 25233" transform="translate(20426 -21290)">
    <g id="Group_25232" data-name="Group 25232">
      <rect id="Rectangle_3444" data-name="Rectangle 3444" width="28" height="28" transform="translate(-20426 21290)" fill="none"/>
      <g id="icon-notice.e6758690" transform="translate(-20427.918 21287.211)">
        <path id="Path_19869" data-name="Path 19869" d="M7.421,10.468h4.3" transform="translate(0.696 1.392)" fill="none" stroke="#809fb8" stroke-linecap="round" stroke-linejoin="round" stroke-width="1.5"/>
        <path id="Path_19870" data-name="Path 19870" d="M7.421,12.639h7.646" transform="translate(0.696 2.088)" fill="none" stroke="#809fb8" stroke-linecap="round" stroke-linejoin="round" stroke-width="1.5"/>
        <path id="Path_19871" data-name="Path 19871" d="M7.421,14.81h5.734" transform="translate(0.696 2.784)" fill="none" stroke="#809fb8" stroke-linecap="round" stroke-linejoin="round" stroke-width="1.5"/>
        <path id="Path_19872" data-name="Path 19872" d="M7.421,16.982H12.2" transform="translate(0.696 3.48)" fill="none" stroke="#809fb8" stroke-linecap="round" stroke-linejoin="round" stroke-width="1.5"/>
        <path id="Path_19873" data-name="Path 19873" d="M18.946,25.534A5.734,5.734,0,1,0,13.211,19.8,5.734,5.734,0,0,0,18.946,25.534Z" transform="translate(2.552 2.545)" fill="none" stroke="#809fb8" stroke-linejoin="round" stroke-width="1.5"/>
        <path id="Path_19874" data-name="Path 19874" d="M21.259,17.22l-3.651,4-1.864-1.481" transform="translate(3.364 3.556)" fill="none" stroke="#809fb8" stroke-linecap="round" stroke-linejoin="round" stroke-width="1.5"/>
        <path id="Path_19875" data-name="Path 19875" d="M15.285,26.2H5.25V6.125H15.763L20.542,10.9v4.3" transform="translate(0 0)" fill="none" stroke="#809fb8" stroke-linejoin="round" stroke-width="1.5"/>
        <path id="Path_19876" data-name="Path 19876" d="M13.211,6.125V10.9H17.99" transform="translate(2.552 0)" fill="none" stroke="#809fb8" stroke-linecap="round" stroke-linejoin="round" stroke-width="1.5"/>
      </g>
    </g>
  </g>
</svg>
